<svg xmlns="http://www.w3.org/2000/svg" viewBox="0 0 24 24" fill="currentColor">
  <path d="M22.46 7.57L12.357 2.115c-.223-.12-.49-.12-.713 0L1.543 7.57c-.364.197-.5.652-.303 1.017.135.25.394.393.66.393.12 0 .243-.03.356-.09L11.5 3.473l9.243 4.417c.113.06.236.09.356.09.266 0 .525-.143.66-.393.197-.365.06-.82-.303-1.017zM22.46 15.57L12.357 20.115c-.223.12-.49.12-.713 0L1.543 15.57c-.364-.197-.5-.652-.303-1.017.135-.25.394-.393.66-.393.12 0 .243.03.356.09L11.5 20.527l9.243-4.417c.113-.06.236-.09.356-.09.266 0 .525.143.66.393.197.365.06.82-.303 1.017z"/>
  <path d="M12 4.5L3.5 9.5v5L12 19.5l8.5-5v-5L12 4.5z"/>
</svg>
