<svg xmlns="http://www.w3.org/2000/svg" viewBox="0 0 24 24" fill="currentColor">
  <path d="M11.5 2.75h-8a.75.75 0 0 0-.75.75v8c0 .414.336.75.75.75h8a.75.75 0 0 0 .75-.75v-8a.75.75 0 0 0-.75-.75zm-7.25 7.25V4h6.5v6h-6.5z"/>
  <path d="M20.5 2.75h-8a.75.75 0 0 0-.75.75v8c0 .414.336.75.75.75h8a.75.75 0 0 0 .75-.75v-8a.75.75 0 0 0-.75-.75zm-7.25 7.25V4h6.5v6h-6.5z"/>
  <path d="M11.5 12.75h-8a.75.75 0 0 0-.75.75v8c0 .414.336.75.75.75h8a.75.75 0 0 0 .75-.75v-8a.75.75 0 0 0-.75-.75zm-7.25 7.25V14h6.5v6h-6.5z"/>
  <path d="M20.5 12.75h-8a.75.75 0 0 0-.75.75v8c0 .414.336.75.75.75h8a.75.75 0 0 0 .75-.75v-8a.75.75 0 0 0-.75-.75zm-7.25 7.25V14h6.5v6h-6.5z"/>
</svg> 