<?xml version="1.0" encoding="utf-8" ?>
<svg baseProfile="full" height="2048" version="1.1" width="2048" xmlns="http://www.w3.org/2000/svg" xmlns:ev="http://www.w3.org/2001/xml-events" xmlns:xlink="http://www.w3.org/1999/xlink"><defs><linearGradient id="grad1" x1="0" x2="1" y1="0" y2="1"><stop offset="0" stop-color="#00FF99" /><stop offset="1" stop-color="#006633" /></linearGradient></defs><rect fill="black" height="2048" width="2048" x="0" y="0" /><polygon fill="url(#grad1)" points="1915,1914 1914,1915 1912,1915 1911,1916 1909,1916 1908,1917 1907,1917 1906,1918 1905,1918 1904,1919 1903,1919 1900,1922 1899,1922 1896,1925 1896,1926 1893,1929 1893,1930 1892,1931 1892,1932 1891,1933 1891,1934 1890,1935 1890,1936 1889,1937 1889,1940 1888,1941 1888,1956 1889,1957 1889,1959 1890,1960 1890,1962 1891,1963 1891,1964 1892,1965 1892,1966 1893,1967 1893,1968 1896,1971 1896,1972 1899,1975 1900,1975 1903,1978 1904,1978 1905,1979 1906,1979 1907,1980 1908,1980 1909,1981 1910,1981 1911,1982 1914,1982 1915,1983 1956,1983 1957,1982 1959,1982 1960,1981 1962,1981 1963,1980 1964,1980 1965,1979 1966,1979 1967,1978 1968,1978 1971,1975 1972,1975 1975,1972 1975,1971 1978,1968 1978,1967 1979,1966 1979,1965 1980,1964 1980,1963 1981,1962 1981,1961 1982,1960 1982,1957 1983,1956 1983,1941 1982,1940 1982,1938 1981,1937 1981,1935 1980,1934 1980,1933 1979,1932 1979,1931 1978,1930 1978,1929 1975,1926 1975,1925 1972,1922 1971,1922 1968,1919 1967,1919 1966,1918 1965,1918 1964,1917 1963,1917 1962,1916 1961,1916 1960,1915 1957,1915 1956,1914" stroke="#00FF99" stroke-width="2" /><polygon fill="url(#grad1)" points="568,1174 565,1177 565,1201 566,1202 566,1203 665,1302 665,1303 710,1348 710,1349 716,1355 717,1355 718,1356 718,1357 719,1357 723,1361 1169,1361 1170,1360 1171,1361 1172,1360 1173,1361 1184,1361 1185,1360 1195,1360 1196,1361 1197,1360 1231,1360 1232,1361 1237,1361 1238,1360 1239,1361 1257,1361 1258,1360 1259,1361 1260,1360 1328,1360 1330,1358 1331,1358 1331,1357 1332,1356 1333,1356 1333,1355 1363,1325 1364,1325 1365,1324 1365,1323 1412,1276 1412,1275 1454,1233 1454,1232 1481,1205 1482,1205 1482,1204 1484,1202 1484,1193 1483,1192 1483,1191 1482,1190 1481,1190 1480,1189 1235,1189 1234,1190 896,1190 895,1189 894,1189 893,1188 892,1188 890,1186 889,1186 888,1185 887,1185 885,1183 884,1183 883,1182 882,1182 880,1180 879,1180 877,1178 876,1178 874,1176 873,1176 871,1174" stroke="#00FF99" stroke-width="2" /><polygon fill="url(#grad1)" points="1345,993 1344,994 1074,994 1073,995 1072,995 1071,994 1070,995 820,995 819,996 818,996 817,995 816,996 815,995 814,996 806,996 805,995 804,996 594,996 592,998 592,999 582,1009 582,1010 568,1024 568,1025 565,1028 565,1032 564,1033 564,1035 565,1036 564,1037 564,1039 565,1040 564,1041 564,1044 565,1045 564,1046 565,1047 564,1048 565,1049 565,1051 564,1052 565,1053 565,1054 564,1055 564,1058 565,1059 565,1078 584,1097 585,1097 593,1105 594,1105 595,1106 863,1106 864,1105 865,1106 900,1106 901,1105 902,1105 903,1106 904,1105 1282,1105 1283,1104 1447,1104 1476,1075 1476,1074 1478,1072 1478,1050 1477,1049 1478,1048 1477,1047 1477,1023 1471,1017 1471,1016 1470,1016 1467,1013 1467,1012 1466,1012 1465,1011 1465,1010 1464,1010 1463,1009 1463,1008 1457,1002 1456,1002 1448,994 1447,994 1446,993 1408,993 1407,994 1406,994 1405,993 1404,994 1401,994 1400,993 1399,994 1390,994 1389,993 1388,994 1387,993 1386,994 1385,993 1376,993 1375,994 1374,994 1373,993 1356,993 1355,994 1354,993 1352,993 1351,994 1350,993 1348,993 1347,994 1346,993" stroke="#00FF99" stroke-width="2" /><polygon fill="url(#grad1)" points="779,663 778,664 777,664 772,669 772,670 761,681 761,682 750,693 750,694 740,704 740,705 728,717 728,718 716,730 716,731 710,737 710,738 697,751 697,752 685,764 685,765 678,772 678,773 664,787 664,788 654,798 654,799 646,807 646,808 636,818 636,819 626,829 626,830 612,844 612,845 604,853 604,854 596,862 596,863 586,873 586,874 577,883 577,884 563,898 563,922 564,923 564,925 565,925 566,926 571,926 572,927 573,926 587,926 588,927 591,927 592,926 662,926 663,927 664,926 665,927 666,926 667,927 669,927 670,926 671,926 672,927 673,927 674,926 675,927 676,927 677,926 678,927 682,927 683,926 684,927 685,926 688,926 689,927 690,926 1252,926 1253,927 1254,926 1479,926 1482,923 1482,890 1480,888 1480,887 1475,882 1475,881 1465,871 1465,870 1460,865 1460,864 1454,858 1454,857 1449,852 1449,851 1446,848 1446,847 1439,840 1439,839 1433,833 1433,832 1429,828 1429,827 1421,819 1421,818 1416,813 1416,812 1411,807 1411,806 1405,800 1405,799 1399,793 1399,792 1393,786 1393,785 1387,779 1387,778 1381,772 1381,771 1377,767 1377,766 1371,760 1371,759 1370,759 1369,758 1369,757 1367,755 1367,754 1366,754 1365,753 1365,752 1356,743 1356,742 1351,737 1351,736 1346,731 1346,730 1340,724 1340,723 1336,719 1336,718 1331,713 1331,712 1322,703 1322,702 1315,695 1315,694 1309,688 1309,687 1303,681 1303,680 1298,675 1298,674 1292,668 1292,667 1291,666 1290,666 1289,665 1270,665 1269,664 1240,664 1239,663" stroke="#00FF99" stroke-width="2" /></svg>